<?xml version="1.0" standalone="no"?><!DOCTYPE svg PUBLIC "-//W3C//DTD SVG 1.1//EN" "http://www.w3.org/Graphics/SVG/1.1/DTD/svg11.dtd"><svg class="icon" height="512" viewBox="0 0 1024 1024" version="1.1" xmlns="http://www.w3.org/2000/svg"><path d="M793.963505 145.008701C795.784911 146.387648 799.282089 149.666167 802.804023 154.238587 812.946364 167.406073 814.668286 179.592355 804.254364 193.811496 791.503682 211.221243 743.550385 272.983083 671.941365 364.473517 671.395004 365.171563 671.395004 365.171563 670.848629 365.869598 640.827836 404.223166 608.660941 445.232177 576.493801 486.183936 565.23511 500.517295 554.780672 513.819571 545.398639 525.751778 539.769845 532.91056 535.749052 538.02221 533.606317 540.745318L529.000045 546.599226 529.038633 554.048017 530.476132 831.527183 533.790581 819.99558C532.387529 822.209122 529.747076 826.232115 526.166526 831.44909 520.190249 840.156715 513.853818 848.856917 507.479262 856.912913 502.36253 863.379305 497.447347 869.137485 492.8585 873.984813 484.530679 882.781722 477.792672 887.557438 478.181803 887.552122 482.624866 887.491418 486.674639 890.251125 487.839403 892.66413 487.030443 890.988233 486.225847 885.965683 486.225847 877.916668 486.225847 846.96537 486.119034 798.076627 485.930193 736.146615 485.879162 719.41075 485.822869 701.976644 485.762182 684.016459 485.660772 654.003482 485.552119 623.971275 485.443467 595.355198 485.381897 579.257406 485.381897 579.257406 485.338434 568.16473 485.305837 559.933478 485.305837 559.933478 485.298588 558.142825L485.267814 550.539185 480.434705 544.669148 189.559705 191.387898 193.905292 200.273237C193.729143 199.488902 193.386093 197.642109 193.021937 195.003802 191.845075 186.477449 191.602085 177.546449 192.80303 169.702613 195.030266 155.155669 200.319787 149.333333 213.934178 149.333333L806.840431 149.333333 793.963505 145.008701 793.963505 145.008701ZM819.717355 110.991299 814.005092 106.666667 806.840431 106.666667 213.934178 106.666667C176.689195 106.666667 155.763873 129.6998 150.627829 163.245303 148.713862 175.746164 149.062776 188.570364 150.755981 200.83762 151.292928 204.727796 151.850982 207.732048 152.275568 209.622596L153.38961 214.583074 156.621155 218.507936 447.496156 571.789186 442.632271 558.315507C442.639509 560.103955 442.639509 560.103955 442.672098 568.332666 442.71555 579.422607 442.71555 579.422607 442.777107 595.517199 442.885739 624.127684 442.994372 654.154071 443.095761 684.160625 443.156431 702.116311 443.212708 719.545769 443.263725 736.276715 443.452439 798.165579 443.559181 847.020964 443.559181 877.916668 443.559181 909.574193 453.68784 930.557419 478.764683 930.214805 494.092617 930.005389 507.725702 920.342628 523.843194 903.317271 529.377986 897.470716 535.090202 890.778805 540.938163 883.388305 547.972732 874.498202 554.859861 865.041869 561.344902 855.592956 565.241143 849.916011 568.161894 845.465954 569.827778 842.837754L573.174613 837.557585 573.142227 831.30615 571.704727 553.826982 567.137043 567.129683C569.284183 564.400975 573.306906 559.286878 578.939034 552.123855 588.325205 540.186383 598.783908 526.878682 610.047061 512.539639 642.228047 471.570255 674.409278 430.542967 704.446735 392.168111 704.993466 391.469619 704.993466 391.469619 705.540188 390.771115 777.651509 298.638921 825.511925 236.996706 838.676495 219.021837 861.835479 187.400625 857.25961 155.016578 836.605888 128.202488 830.479428 120.248695 824.328213 114.48208 819.717355 110.991299L819.717355 110.991299Z" /></svg>